<svg id="Layer_1" enable-background="new 0 0 511.745 511.745" height="512" viewBox="0 0 511.745 511.745" width="512" xmlns="http://www.w3.org/2000/svg"><g><g fill="#020288"><path d="m330.718 412.003c-2.501 0-4.96.186-7.364.542l-29.225-80.27c-1.89-5.19-7.629-7.866-12.817-5.976-5.189 1.89-7.865 7.628-5.976 12.817l29.23 80.285c-14.297 8.809-23.848 24.61-23.848 42.6 2.746 66.332 97.264 66.312 100 0 0-27.568-22.43-49.998-50-49.998zm0 80c-16.542 0-30-13.458-30-30 1.648-39.799 58.358-39.788 60 0 0 16.542-13.458 30-30 30z"/><path d="m441.718.001c-57.325-.295-90.474 66.69-56.041 111.901l-81.333 81.332c-9.015 9.743 4.411 23.153 14.143 14.143l81.333-81.332c45.229 34.437 112.197 1.263 111.898-56.044 0-38.598-31.403-70-70-70zm0 120c-27.57 0-50-22.43-50-50 2.746-66.332 97.264-66.313 100 0 0 27.57-22.43 50-50 50z"/><path d="m448.224 251.578c-16.031 0-29.89 9.48-36.265 23.129l-71.134-13.146c-5.429-1.003-10.647 2.585-11.651 8.017-1.003 5.431 2.586 10.647 8.017 11.651l71.132 13.146c5.35 50.941 78.05 48.566 79.903-2.796-.002-22.057-17.947-40.001-40.002-40.001zm0 60c-11.028 0-20-8.972-20-20 1.098-26.533 38.906-26.525 40 0 0 11.028-8.972 20-20 20z"/><path d="m161.413 111.964c28.738-31.514 5.895-83.541-37.19-83.385-27.57 0-49.999 22.429-49.999 50-.464 36.066 38.812 60.965 71.134 45.311l56.476 76.204c3.308 4.465 9.594 5.348 13.988 2.08 4.438-3.288 5.368-9.552 2.08-13.988zm-67.189-33.386c0-16.542 13.458-30 30-30 39.799 1.648 39.787 58.358 0 60-16.542 0-30-13.458-30-30z"/><path d="m177.076 283.386-68.647 33.622c-10.903-15.135-28.677-25.007-48.713-25.007-79.592 3.293-79.58 116.714 0 120 39.403.643 69.247-39.567 57.534-77.044l68.623-33.61c4.96-2.429 7.012-8.419 4.582-13.379-2.429-4.96-8.417-7.014-13.379-4.582zm-117.36 108.615c-22.056 0-40-17.944-40-40 2.198-53.065 77.81-53.05 80 0 0 22.056-17.944 40-40 40z"/></g><path clip-rule="evenodd" d="m255.717 356.002c55.078 0 100-44.922 100-100-5.649-132.673-194.371-132.634-200 .001 0 55.077 44.922 99.999 100 99.999z" fill="#ffbebc" fill-rule="evenodd"/><path d="m281.102 265.196c-3.063-7.397-8.806-13.15-16.168-16.201l-10.778-4.463c-5.052-2.093-7.459-7.905-5.366-12.958 1.005-2.428 2.914-4.325 5.375-5.345 2.462-1.021 5.154-1.027 7.581-.023l5.389 2.232c5.101 2.115 10.953-.309 13.065-5.411 2.114-5.103-.309-10.952-5.411-13.065l-5.39-2.233c-1.209-.5-2.438-.918-3.682-1.254v-5.473c-.529-13.268-19.476-13.258-20 0v7.092c-7.015 3.138-12.467 8.73-15.405 15.827-3.051 7.362-3.043 15.491.021 22.888 3.063 7.397 8.806 13.15 16.169 16.201l10.777 4.463c2.427 1.006 4.325 2.915 5.345 5.377 1.02 2.461 1.027 5.153.021 7.581-1.005 2.428-2.914 4.325-5.375 5.345-2.462 1.02-5.154 1.027-7.581.023l-5.389-2.232c-5.099-2.113-10.952.31-13.065 5.411-2.114 5.103.309 10.952 5.411 13.065l5.39 2.233c1.209.5 2.438.918 3.681 1.254v5.473c.529 13.268 19.476 13.258 20 0v-7.092c7.015-3.138 12.468-8.73 15.406-15.827 3.051-7.362 3.043-15.491-.021-22.888z" fill="#020288"/></g></svg>